<?xml version="1.0" encoding="utf-8"?>
<!-- Generator: Adobe Illustrator 26.0.3, SVG Export Plug-In . SVG Version: 6.00 Build 0)  -->
<svg version="1.1" xmlns="http://www.w3.org/2000/svg" xmlns:xlink="http://www.w3.org/1999/xlink" x="0px" y="0px"
	 viewBox="0 0 500 500" style="enable-background:new 0 0 500 500;" xml:space="preserve">
<style type="text/css">
	.st0{display:none;}
	.st1{display:inline;fill:#1A1A1A;}
	.st2{fill:#CCCCCC;}
</style>
<g id="Capa_2" class="st0">
	<rect class="st1" width="500" height="500"/>
</g>
<g id="Capa_1">
	<g>
		<g>
			<g>
				<g>
					<g>
						<path class="st2" d="M295.28,267.51c-19.42,0-35.21-15.8-35.21-35.21s15.8-35.21,35.21-35.21s35.21,15.8,35.21,35.21
							S314.69,267.51,295.28,267.51z M295.28,198.92c-18.4,0-33.38,14.97-33.38,33.38s14.97,33.38,33.38,33.38
							s33.38-14.97,33.38-33.38S313.68,198.92,295.28,198.92z"/>
						<g>
							<ellipse class="st2" cx="250" cy="266.24" rx="7.68" ry="20.24"/>
						</g>
					</g>
				</g>
			</g>
			<g>
				<g>
					<g>
						<g>
							<path class="st2" d="M252.59,232.3c0-23.54,19.15-42.69,42.69-42.69c23.54,0,42.69,19.15,42.69,42.69
								c0,23.54-19.15,42.69-42.69,42.69C271.74,274.98,252.59,255.83,252.59,232.3z M256.98,232.3c0,21.12,17.18,38.3,38.3,38.3
								c21.12,0,38.3-17.18,38.3-38.3S316.4,194,295.28,194C274.16,194,256.98,211.18,256.98,232.3z"/>
						</g>
						<circle class="st2" cx="295.28" cy="232.3" r="13.71"/>
						
							<rect x="286.03" y="174.46" transform="matrix(0.9815 -0.1915 0.1915 0.9815 -27.0044 73.8343)" class="st2" width="165.08" height="4.39"/>
						<g>
							<ellipse class="st2" cx="250" cy="266.24" rx="7.68" ry="20.24"/>
						</g>
						<g>
							
								<rect x="341.59" y="209.26" transform="matrix(0.9213 -0.3889 0.3889 0.9213 -54.7505 152.4168)" class="st2" width="15.08" height="4.39"/>
							<rect x="294.18" y="281.8" class="st2" width="4.39" height="15.07"/>
							
								<rect x="315.81" y="277.41" transform="matrix(0.9213 -0.3889 0.3889 0.9213 -85.7783 146.0889)" class="st2" width="4.39" height="15.08"/>
							
								<rect x="315.81" y="277.41" transform="matrix(0.9213 -0.3889 0.3889 0.9213 -85.7783 146.0889)" class="st2" width="4.39" height="15.08"/>
							
								<rect x="341.59" y="209.26" transform="matrix(0.9213 -0.3889 0.3889 0.9213 -54.7505 152.4168)" class="st2" width="15.08" height="4.39"/>
							<rect x="294.18" y="281.8" class="st2" width="4.39" height="15.07"/>
							
								<rect x="333.62" y="265.62" transform="matrix(0.7071 -0.7071 0.7071 0.7071 -94.793 317.4628)" class="st2" width="4.39" height="15.07"/>
							
								<rect x="346.24" y="247.28" transform="matrix(0.3764 -0.9265 0.9265 0.3764 -18.7963 481.7152)" class="st2" width="4.39" height="15.08"/>
							<rect x="345.5" y="231.53" class="st2" width="15.08" height="4.39"/>
							<rect x="345.5" y="231.53" class="st2" width="15.08" height="4.39"/>
							
								<rect x="346.24" y="247.28" transform="matrix(0.3764 -0.9265 0.9265 0.3764 -18.7963 481.7152)" class="st2" width="4.39" height="15.08"/>
							
								<rect x="333.62" y="265.62" transform="matrix(0.7071 -0.7071 0.7071 0.7071 -94.793 317.4628)" class="st2" width="4.39" height="15.07"/>
						</g>
					</g>
				</g>
				<g>
					
						<rect x="360.07" y="192.99" transform="matrix(0.9161 -0.4009 0.4009 0.9161 -45.7954 171.5)" class="st2" width="53.74" height="4.39"/>
					
						<rect x="339.62" y="290.88" transform="matrix(0.8324 -0.5541 0.5541 0.8324 -109.5167 239.8396)" class="st2" width="4.39" height="20.25"/>
					
						<rect x="276.19" y="306.36" transform="matrix(0.1969 -0.9804 0.9804 0.1969 -76.823 523.317)" class="st2" width="9.66" height="4.39"/>
					
						<rect x="309.3" y="303.43" transform="matrix(0.9798 -0.1998 0.1998 0.9798 -55.7863 68.4984)" class="st2" width="4.39" height="14.45"/>
					<rect x="367.21" y="231.53" class="st2" width="82.79" height="4.39"/>
					
						<rect x="365.83" y="214.21" transform="matrix(0.9797 -0.2007 0.2007 0.9797 -35.6338 81.2834)" class="st2" width="34.56" height="4.39"/>
					
						<rect x="377.76" y="236.53" transform="matrix(0.2186 -0.9758 0.9758 0.2186 52.1565 566.7648)" class="st2" width="4.39" height="28.57"/>
					
						<rect x="362.96" y="267.3" transform="matrix(0.5532 -0.8331 0.8331 0.5532 -69.7171 429.1149)" class="st2" width="4.39" height="24.5"/>
					
						<rect x="390.74" y="238.92" transform="matrix(0.3764 -0.9265 0.9265 0.3764 -7.3775 533.9579)" class="st2" width="4.39" height="67.07"/>
				</g>
				
					<rect x="330.34" y="297.75" transform="matrix(0.9209 -0.3898 0.3898 0.9209 -98.4307 154.9489)" class="st2" width="4.39" height="44.45"/>
				
					<rect x="367.97" y="274.8" transform="matrix(0.7095 -0.7047 0.7047 0.7095 -109.7575 350.4026)" class="st2" width="4.39" height="67.07"/>
				<rect x="294.19" y="305.1" class="st2" width="4.39" height="28.09"/>
			</g>
		</g>
		<g>
			<g>
				<g>
					<g>
						<path class="st2" d="M169.51,232.3c0-19.41,15.8-35.21,35.21-35.21s35.21,15.8,35.21,35.21s-15.8,35.21-35.21,35.21
							S169.51,251.71,169.51,232.3z M171.34,232.3c0,18.4,14.97,33.38,33.38,33.38s33.38-14.97,33.38-33.38
							s-14.97-33.38-33.38-33.38S171.34,213.89,171.34,232.3z"/>
						<g>
							<ellipse class="st2" cx="250" cy="266.24" rx="7.68" ry="20.24"/>
						</g>
					</g>
				</g>
			</g>
			<g>
				<g>
					<g>
						<g>
							<path class="st2" d="M204.72,274.98c-23.54,0-42.69-19.15-42.69-42.69c0-23.54,19.15-42.69,42.69-42.69
								s42.69,19.15,42.69,42.69C247.41,255.83,228.26,274.98,204.72,274.98z M204.72,194c-21.12,0-38.3,17.18-38.3,38.3
								s17.18,38.3,38.3,38.3s38.3-17.18,38.3-38.3S225.84,194,204.72,194z"/>
						</g>
						<circle class="st2" cx="204.72" cy="232.3" r="13.71"/>
						
							<rect x="129.24" y="94.12" transform="matrix(0.1915 -0.9815 0.9815 0.1915 -67.1206 271.8348)" class="st2" width="4.39" height="165.08"/>
						<g>
							<ellipse class="st2" cx="250" cy="266.24" rx="7.68" ry="20.24"/>
						</g>
						<g>
							
								<rect x="148.68" y="203.91" transform="matrix(0.3889 -0.9213 0.9213 0.3889 -102.6111 268.2175)" class="st2" width="4.39" height="15.08"/>
							<rect x="201.43" y="281.8" class="st2" width="4.39" height="15.07"/>
							
								<rect x="174.46" y="282.75" transform="matrix(0.3889 -0.9213 0.9213 0.3889 -151.2965 341.813)" class="st2" width="15.08" height="4.39"/>
							
								<rect x="174.46" y="282.75" transform="matrix(0.3889 -0.9213 0.9213 0.3889 -151.2965 341.813)" class="st2" width="15.08" height="4.39"/>
							
								<rect x="148.68" y="203.91" transform="matrix(0.3889 -0.9213 0.9213 0.3889 -102.6111 268.2175)" class="st2" width="4.39" height="15.08"/>
							<rect x="201.43" y="281.8" class="st2" width="4.39" height="15.07"/>
							
								<rect x="156.65" y="270.96" transform="matrix(0.7071 -0.7071 0.7071 0.7071 -145.0622 196.1021)" class="st2" width="15.07" height="4.39"/>
							
								<rect x="144.02" y="252.63" transform="matrix(0.9265 -0.3764 0.3764 0.9265 -84.7685 75.7898)" class="st2" width="15.08" height="4.39"/>
							<rect x="139.42" y="231.53" class="st2" width="15.08" height="4.39"/>
							<rect x="139.42" y="231.53" class="st2" width="15.08" height="4.39"/>
							
								<rect x="144.02" y="252.63" transform="matrix(0.9265 -0.3764 0.3764 0.9265 -84.7685 75.7898)" class="st2" width="15.08" height="4.39"/>
							
								<rect x="156.65" y="270.96" transform="matrix(0.7071 -0.7071 0.7071 0.7071 -145.0622 196.1021)" class="st2" width="15.07" height="4.39"/>
						</g>
					</g>
				</g>
				<g>
					
						<rect x="110.86" y="168.32" transform="matrix(0.4009 -0.9161 0.9161 0.4009 -111.0839 220.5113)" class="st2" width="4.39" height="53.74"/>
					
						<rect x="148.06" y="298.81" transform="matrix(0.5541 -0.8324 0.8324 0.5541 -180.035 265.8946)" class="st2" width="20.25" height="4.39"/>
					
						<rect x="216.78" y="303.72" transform="matrix(0.9804 -0.1969 0.1969 0.9804 -56.4672 49.1575)" class="st2" width="4.39" height="9.66"/>
					
						<rect x="181.28" y="308.46" transform="matrix(0.1998 -0.9798 0.9798 0.1998 -153.5437 433.2905)" class="st2" width="14.45" height="4.39"/>
					<rect x="50" y="231.53" class="st2" width="82.79" height="4.39"/>
					
						<rect x="114.7" y="199.12" transform="matrix(0.2007 -0.9797 0.9797 0.2007 -118.5657 287.4905)" class="st2" width="4.39" height="34.56"/>
					
						<rect x="105.76" y="248.62" transform="matrix(0.9758 -0.2186 0.2186 0.9758 -51.9172 32.3019)" class="st2" width="28.57" height="4.39"/>
					
						<rect x="122.59" y="277.35" transform="matrix(0.8331 -0.5532 0.5532 0.8331 -132.1275 121.2538)" class="st2" width="24.5" height="4.39"/>
					
						<rect x="73.53" y="270.26" transform="matrix(0.9265 -0.3764 0.3764 0.9265 -94.6728 60.3293)" class="st2" width="67.07" height="4.39"/>
				</g>
				
					<rect x="145.24" y="317.78" transform="matrix(0.3898 -0.9209 0.9209 0.3898 -192.4798 349.4572)" class="st2" width="44.45" height="4.39"/>
				
					<rect x="96.3" y="306.14" transform="matrix(0.7047 -0.7095 0.7095 0.7047 -180.4364 183.1859)" class="st2" width="67.07" height="4.39"/>
				<rect x="201.42" y="305.1" class="st2" width="4.39" height="28.09"/>
			</g>
		</g>
	</g>
</g>
</svg>
