<svg xmlns="http://www.w3.org/2000/svg" viewBox="0 0 500 500" style="enable-background:new 0 0 500 500" xml:space="preserve"><style>.st2{fill:#ccc}</style><g id="Capa_1"><path class="st2" d="M295.28 267.51c-19.42 0-35.21-15.8-35.21-35.21s15.8-35.21 35.21-35.21 35.21 15.8 35.21 35.21-15.8 35.21-35.21 35.21zm0-68.59c-18.4 0-33.38 14.97-33.38 33.38s14.97 33.38 33.38 33.38 33.38-14.97 33.38-33.38-14.98-33.38-33.38-33.38z"/><ellipse class="st2" cx="250" cy="266.24" rx="7.68" ry="20.24"/><g><path class="st2" d="M252.59 232.3c0-23.54 19.15-42.69 42.69-42.69s42.69 19.15 42.69 42.69-19.15 42.69-42.69 42.69c-23.54-.01-42.69-19.16-42.69-42.69zm4.39 0c0 21.12 17.18 38.3 38.3 38.3 21.12 0 38.3-17.18 38.3-38.3S316.4 194 295.28 194c-21.12 0-38.3 17.18-38.3 38.3z"/><circle class="st2" cx="295.28" cy="232.3" r="13.71"/><path transform="rotate(-11.038 368.496 176.614)" class="st2" d="M286.03 174.46h165.08v4.39H286.03z"/><ellipse class="st2" cx="250" cy="266.24" rx="7.68" ry="20.24"/><path transform="rotate(-22.883 349.13 211.435)" class="st2" d="M341.59 209.26h15.08v4.39h-15.08z"/><path class="st2" d="M294.18 281.8h4.39v15.07h-4.39z"/><path transform="rotate(-22.883 317.99 284.917)" class="st2" d="M315.81 277.41h4.39v15.08h-4.39z"/><path transform="rotate(-22.883 317.99 284.917)" class="st2" d="M315.81 277.41h4.39v15.08h-4.39z"/><path transform="rotate(-22.883 349.13 211.435)" class="st2" d="M341.59 209.26h15.08v4.39h-15.08z"/><path class="st2" d="M294.18 281.8h4.39v15.07h-4.39z"/><path transform="rotate(-45.001 335.813 273.162)" class="st2" d="M333.62 265.62h4.39v15.07h-4.39z"/><path transform="rotate(-67.89 348.414 254.81)" class="st2" d="M346.24 247.28h4.39v15.08h-4.39z"/><path class="st2" d="M345.5 231.53h15.08v4.39H345.5z"/><path class="st2" d="M345.5 231.53h15.08v4.39H345.5z"/><path transform="rotate(-67.89 348.414 254.81)" class="st2" d="M346.24 247.28h4.39v15.08h-4.39z"/><path transform="rotate(-45.001 335.813 273.162)" class="st2" d="M333.62 265.62h4.39v15.07h-4.39z"/><g><path transform="rotate(-23.638 386.934 195.209)" class="st2" d="M360.07 192.99h53.74v4.39h-53.74z"/><path transform="rotate(-33.65 341.82 301.013)" class="st2" d="M339.62 290.88h4.39v20.25h-4.39z"/><path transform="rotate(-78.644 281.021 308.559)" class="st2" d="M276.19 306.36h9.66v4.39h-9.66z"/><path transform="rotate(-11.526 311.484 310.646)" class="st2" d="M309.3 303.43h4.39v14.45h-4.39z"/><path class="st2" d="M367.21 231.53H450v4.39h-82.79z"/><path transform="rotate(-11.577 383.063 216.381)" class="st2" d="M365.83 214.21h34.56v4.39h-34.56z"/><path transform="rotate(-77.373 379.969 250.82)" class="st2" d="M377.76 236.53h4.39v28.57h-4.39z"/><path transform="rotate(-56.415 365.15 279.536)" class="st2" d="M362.96 267.3h4.39v24.5h-4.39z"/><path transform="rotate(-67.89 392.929 272.448)" class="st2" d="M390.74 238.92h4.39v67.07h-4.39z"/></g><path transform="rotate(-22.942 332.572 320.003)" class="st2" d="M330.34 297.75h4.39v44.45h-4.39z"/><path transform="rotate(-44.806 370.133 308.331)" class="st2" d="M367.97 274.8h4.39v67.07h-4.39z"/><path class="st2" d="M294.19 305.1h4.39v28.09h-4.39z"/></g><g><path class="st2" d="M169.51 232.3c0-19.41 15.8-35.21 35.21-35.21s35.21 15.8 35.21 35.21-15.8 35.21-35.21 35.21-35.21-15.8-35.21-35.21zm1.83 0c0 18.4 14.97 33.38 33.38 33.38s33.38-14.97 33.38-33.38-14.97-33.38-33.38-33.38-33.38 14.97-33.38 33.38z"/><ellipse class="st2" cx="250" cy="266.24" rx="7.68" ry="20.24"/><g><path class="st2" d="M204.72 274.98c-23.54 0-42.69-19.15-42.69-42.69s19.15-42.69 42.69-42.69 42.69 19.15 42.69 42.69-19.15 42.69-42.69 42.69zm0-80.98c-21.12 0-38.3 17.18-38.3 38.3s17.18 38.3 38.3 38.3 38.3-17.18 38.3-38.3-17.18-38.3-38.3-38.3z"/><circle class="st2" cx="204.72" cy="232.3" r="13.71"/><path transform="rotate(-78.96 131.44 176.657)" class="st2" d="M129.24 94.12h4.39V259.2h-4.39z"/><ellipse class="st2" cx="250" cy="266.24" rx="7.68" ry="20.24"/><path transform="rotate(-67.114 150.873 211.451)" class="st2" d="M148.68 203.91h4.39v15.08h-4.39z"/><path class="st2" d="M201.43 281.8h4.39v15.07h-4.39z"/><path transform="rotate(-67.114 182.006 284.946)" class="st2" d="M174.46 282.75h15.08v4.39h-15.08z"/><path transform="rotate(-67.114 182.006 284.946)" class="st2" d="M174.46 282.75h15.08v4.39h-15.08z"/><path transform="rotate(-67.114 150.873 211.451)" class="st2" d="M148.68 203.91h4.39v15.08h-4.39z"/><path class="st2" d="M201.43 281.8h4.39v15.07h-4.39z"/><path transform="rotate(-45.001 164.183 273.16)" class="st2" d="M156.65 270.96h15.07v4.39h-15.07z"/><path transform="rotate(-22.11 151.568 254.821)" class="st2" d="M144.02 252.63h15.08v4.39h-15.08z"/><path class="st2" d="M139.42 231.53h15.08v4.39h-15.08z"/><path class="st2" d="M139.42 231.53h15.08v4.39h-15.08z"/><path transform="rotate(-22.11 151.568 254.821)" class="st2" d="M144.02 252.63h15.08v4.39h-15.08z"/><path transform="rotate(-45.001 164.183 273.16)" class="st2" d="M156.65 270.96h15.07v4.39h-15.07z"/><g><path transform="rotate(-66.366 113.057 195.193)" class="st2" d="M110.86 168.32h4.39v53.74h-4.39z"/><path transform="rotate(-56.35 158.197 301.019)" class="st2" d="M148.06 298.81h20.25v4.39h-20.25z"/><path transform="rotate(-11.363 218.94 308.575)" class="st2" d="M216.78 303.72h4.39v9.66h-4.39z"/><path transform="rotate(-78.474 188.517 310.663)" class="st2" d="M181.28 308.46h14.45v4.39h-14.45z"/><path class="st2" d="M50 231.53h82.79v4.39H50z"/><path transform="rotate(-78.423 116.89 216.394)" class="st2" d="M114.7 199.12h4.39v34.56h-4.39z"/><path transform="rotate(-12.631 120.004 250.784)" class="st2" d="M105.76 248.62h28.57v4.39h-28.57z"/><path transform="rotate(-33.585 134.83 279.53)" class="st2" d="M122.59 277.35h24.5v4.39h-24.5z"/><path transform="rotate(-22.11 107.052 272.437)" class="st2" d="M73.53 270.26h67.07v4.39H73.53z"/></g><path transform="rotate(-67.058 167.456 319.971)" class="st2" d="M145.24 317.78h44.45v4.39h-44.45z"/><path transform="rotate(-45.195 129.848 308.359)" class="st2" d="M96.3 306.14h67.07v4.39H96.3z"/><path class="st2" d="M201.42 305.1h4.39v28.09h-4.39z"/></g></g></g></svg>